<svg width="910" height="405" viewBox="0 0 910 405" fill="none" xmlns="http://www.w3.org/2000/svg">
<path d="M73.7925 342.498C59.9214 250.061 28.9313 242.003 5.10107 195.345C-16.5938 152.904 -34.0896 83.4736 27.1369 33.8366C122.243 -43.3288 238.882 35.6311 238.882 35.6311C238.882 35.6311 423.709 141.509 456.009 146.893C488.309 152.276 567.265 206.113 665.96 141.509C764.654 76.9056 848.993 82.2892 875.91 130.742C902.826 179.194 841.815 319.169 827.46 347.881C813.104 376.594 834.637 466.321 857.965 502.212C881.293 538.103 954.865 649.365 796.954 645.776C639.043 642.186 165.309 647.57 165.309 647.57C165.309 647.57 -4.75038 644.394 25.3425 478.883C50.4647 340.703 79.1758 378.389 73.7925 342.498Z" fill="#3180E7" fill-opacity="0.03"/>
<path d="M134.804 329.936C154.625 329.936 170.693 313.867 170.693 294.045C170.693 274.223 154.625 258.154 134.804 258.154C114.983 258.154 98.9148 274.223 98.9148 294.045C98.9148 313.867 114.983 329.936 134.804 329.936Z" fill="#3CAFEF"/>
<path d="M74.6898 362.238C88.0689 362.238 98.9148 351.391 98.9148 338.011C98.9148 324.632 88.0689 313.785 74.6898 313.785C61.3107 313.785 50.4648 324.632 50.4648 338.011C50.4648 351.391 61.3107 362.238 74.6898 362.238Z" fill="#BAC5F4"/>
<path d="M78.2787 295.84C85.7115 295.84 91.737 289.814 91.737 282.381C91.737 274.948 85.7115 268.922 78.2787 268.922C70.8458 268.922 64.8203 274.948 64.8203 282.381C64.8203 289.814 70.8458 295.84 78.2787 295.84Z" fill="#BAC5F4"/>
<path d="M11.8842 125.358C19.317 125.358 25.3425 119.332 25.3425 111.899C25.3425 104.465 19.317 98.4395 11.8842 98.4395C4.45135 98.4395 -1.57416 104.465 -1.57416 111.899C-1.57416 119.332 4.45135 125.358 11.8842 125.358Z" fill="#BAC5F4"/>
<path d="M822.076 385.567C834.96 385.567 845.404 375.123 845.404 362.238C845.404 349.354 834.96 338.909 822.076 338.909C809.193 338.909 798.749 349.354 798.749 362.238C798.749 375.123 809.193 385.567 822.076 385.567Z" fill="#F6513B"/>
<path d="M697.015 308.934C722.782 308.934 743.671 288.045 743.671 262.276C743.671 236.508 722.782 215.618 697.015 215.618C671.248 215.618 650.36 236.508 650.36 262.276C650.36 288.045 671.248 308.934 697.015 308.934Z" fill="#3AEEC1"/>
<path d="M220.04 49.9876C232.428 49.9876 242.47 39.9445 242.47 27.5558C242.47 15.1671 232.428 5.12402 220.04 5.12402C207.652 5.12402 197.609 15.1671 197.609 27.5558C197.609 39.9445 207.652 49.9876 220.04 49.9876Z" fill="#E1E6FB"/>
<path d="M446.431 50.8636C458.819 50.8636 468.861 40.8205 468.861 28.4318C468.861 16.043 458.819 6 446.431 6C434.043 6 424 16.043 424 28.4318C424 40.8205 434.043 50.8636 446.431 50.8636Z" fill="#BAC5F4"/>
</svg>